<svg xmlns="http://www.w3.org/2000/svg" id="Layer_1" data-name="Layer 1" viewBox="0 0 2501 804.52"><defs><style>      .cls-1 {        fill: #cb1d10;      }      .cls-2 {        fill: #4b94f2;      }      .cls-3 {        fill: #7d7f7f;      }      .cls-4 {        fill: #cd1607;      }    </style></defs><g id="Logo_1" data-name="Logo 1"><g><g><path class="cls-2" d="M225.28,336.11c10.78,0,18.33-6.72,19.51-7.86,10.99-10.55,8.92-25.72,8.35-28.86.45,2.08,2.43,9.09,9.11,12,1.22.53,4.45,1.74,8.29.93,6.75-1.42,12.47-8.43,12.44-16.27-.03-7.15-4.86-15.15-13.14-16.3-7.51-1.05-14.97,3.94-17.07,11.77-4.51-11.56-15.12-19.68-27.5-19.68-16.47,0-29.82,14.39-29.82,32.13s13.35,32.13,29.82,32.13Z"></path><path class="cls-2" d="M386.46,245.67c0,8.59,6.9,15.55,15.42,15.55s15.42-6.96,15.42-15.55-6.9-15.55-15.42-15.55-15.42,6.96-15.42,15.55Z"></path><ellipse class="cls-2" cx="316.39" cy="377.67" rx="23.83" ry="24.04"></ellipse><path class="cls-2" d="M395.28,429.84c-13.38,0-24.23,10.95-24.23,24.45s10.85,24.45,24.23,24.45,24.23-10.94,24.23-24.45-10.85-24.45-24.23-24.45Z"></path><path class="cls-2" d="M397.77,575.37c5.87-10.79,5.61-24-1.86-33.98-.66-.88-1.36-1.72-2.1-2.5.6.04,1.18.18,1.79.18,13.53,0,24.49-10.95,24.49-24.45s-10.97-24.45-24.49-24.45-24.5,10.94-24.5,24.45c0,5.72,2.05,10.9,5.34,15.07-8.83-1.51-18.46.55-26.46,6.52-.94.7-1.84,1.44-2.69,2.22-.72.2-5.01,1.3-9.19-1.32-3.59-2.25-4.71-5.76-4.97-6.64-.03-1.54-.21-3.23-.62-5.01-2.01-8.66-8.33-13.9-11.24-16.01.84.07,1.68.13,2.54.13,0,0,4.63.02,9.11-1.5,4.48-1.52,10.82-5.93,15.78-13.54.39,1.32,1.8,5.47,5.96,8.36.55.38,6.33,4.24,12.76,2.01,6.77-2.36,10.68-10.24,9.44-16.71-2.09-10.95-24.25-11.56-25.12-11.19-1.36-8.81-6.78-16.28-14.31-20.42,1.01-.15,6.9-1.13,10.77-6.67,4.06-5.81,2.71-12.08,2.48-13.04,11.39-.05,21.79-6.21,27-16.05,6.75-12.76,1.39-25.39.71-26.93,4-.35,11.05-1.54,18.13-6.18,11.35-7.43,18.35-20.79,18.21-34.2-.22-20.77-17.54-40.45-34.83-40.45-4.56,0-8.91,1.05-12.91,2.9-.84-9.46-8.71-16.91-18.41-16.91-10.26,0-18.57,8.3-18.57,18.54s8.26,18.47,18.48,18.53c-1.83,4.08-3.77,10.12-3.42,17.39,1.05,21.7,21.54,33.89,23.6,35.07-3.59-.4-18.95-1.74-30.41,8.8-3.08,2.83-5.21,5.91-6.69,8.64-.67.9-2.57,3.16-5.9,4.23-4.36,1.41-8.04-.25-8.89-.65-.3-.5-6.56-10.67-18.6-10.67-7.56,0-14.21,4.1-18.35,10.34-1.32-3.24-3.6-5.98-6.49-7.87,7.32-2.79,12.37-9.65,12.87-17.48.51-8.06-3.89-15.7-11.13-19.29,11.92-1.45,21.18-11.46,21.18-23.75,0-1.57-.73-7.65-.9-8.82-.1-.8-.69-5.92,2.98-10.2,4.19-4.89,10.3-4.46,10.92-4.4,2.36.31,6.22.47,10.45-1.12,8.26-3.09,15.34-11.88,15-22.28-.35-10.79-8.57-20.23-19.74-22.13-4.43-3.91-7.11-7.9-8.68-10.71-2.68-4.78-6.28-11.22-4.42-17.68.64-2.22,2.42-4.73,5.99-9.76,3.29-4.64,4.41-5.3,5.14-8.01.92-3.4-.34-4.22.39-9.19.5-3.41.9-6.09,3-7.9,2.22-1.92,5.74-2.33,8.52-1.39,4.17,1.41,4.5,5.11,10.67,11.1,1.88,1.82,3.56,3.14,4.6,3.91-1.45-.45-3.33-.8-5.46-.58-10.42,1.05-20.71,15.04-18.33,27.41,1.22,6.34,5.71,11.94,10.83,14.87,7.65,4.39,15.27,1.99,16.59,5.58,1.08,2.94-3.86,5.09-4.45,10.19-.83,7.13,7,18.54,18.57,18.54,10.67,0,18.39-9.43,18.57-18.54.11-5.63-2.63-12.11-7.58-15.06-4.76-2.84-8.3-.48-11-3.48-2.93-3.26-.46-7.94-.76-15.55-.17-4.29-1.24-10.35-5.47-17.62,3.54,1.1,7.27,1.72,11.14,1.72,22.38,0,40.53-19.62,40.53-43.83s-18.14-43.83-40.53-43.83-40.53,19.62-40.53,43.83c0,2.3.21,4.55.53,6.76-.11.57-1.16,5.69-6.1,8.15-5.31,2.64-10.32-.17-10.71-.39-1.87-2.08-10.33-10.88-22.57-10.88-16.65,0-30.14,14.39-30.14,32.13s12.67,31.18,28.59,32.05c1.93,1,7.23,4.05,10.65,10.61,3.58,6.88,2.86,13.33,2.54,15.45-3.23,3.88-5.25,8.8-5.25,14.24,0,.29.18,2.09.38,4.09.21,2.21.4,4,.52,5.16-.02,1.47-.25,4.9-2.5,8.36-2.99,4.6-7.47,6.06-8.72,6.42-2.71.34-7.72,1.35-12.64,4.93-2.09,1.52-10.76,8.31-11.06,19.99-.33,13.11,10.17,20.69,10.98,21.25-7.7,1.84-13.48,9.42-13.48,18.5,0,6.82,3.28,12.75,8.16,16.08-6.26.94-11.39,5.23-13.51,10.99-1.9-21.16-17.63-37.66-36.75-37.66-20.4,0-36.94,18.79-36.94,41.97,0,21.61,17.67,40.83,36.94,41.97,10.73.64,19.23-4.49,23.28-7.39.71-.1,2.88-.32,4.97,1,2.3,1.45,3.59,4.19,3.44,7.13-1.01,2.66-2.1,6.55-2.1,11.31,0,1.92.18,3.8.51,5.62.53,4.26-1.16,8.45-4.46,10.92-4.04,3.03-8.64,2.08-9.34,1.92-2.54-1.6-6.79-3.57-12.05-3.57-13.23,0-23.95,11.36-23.95,25.37s10.72,25.37,23.95,25.37,23.95-11.36,23.95-25.37c0-.82-.16-1.59-.23-2.39.05-.86.48-6.91,5.63-10.69,3.58-2.63,7.38-2.64,8.64-2.6,2.88.08,7.51-.18,12.51-2.41,7.57-3.39,17.06-11.8,17.05-23.7-.02-10.78-7.83-21.7-14.28-21.85-1.51-.03-2.82.2-4.92.23-1.71.02-2.84-.11-4.29-.23-8.23-.64-9.24-.28-10.6-1.39-.78-.64-1.92-1.96-2.3-4.87.36-6.02.72-12.04,1.09-18.07,2.09,7.07,8.57,12.26,16.33,12.26,4.57,0,8.71-1.82,11.77-4.74,1.44,11.73,11.11,20.66,22.41,21.06,10.34.37,20.35-11.8,24.13-21.39,1.8-4.56,2.59-9.62,4.89-9.82,2.18-.19,4.36,4.11,5.92,7.98-.68.23-9.58,3.41-11.99,12.71-1.95,7.52,1.77,13.55,2.41,14.54-15.51.14-28.05,12.72-28.05,28.23,0,9.86,5.07,18.53,12.74,23.58-7.99.06-14.97,4.82-18.97,11.93-.58-9.11-8.27-16.35-17.77-16.35s-17.88,7.8-17.88,17.42c0,2,.42,3.89,1.05,5.68-1.32-.19-2.64-.39-4.01-.39-15.58,0-28.21,12.31-28.21,27.49s12.63,27.49,28.21,27.49,28.21-12.31,28.21-27.49c0-5.79-1.86-11.16-5-15.59,4.96-.65,9.23-3.3,12.05-7.04-.07.83-.22,1.64-.22,2.5,0,10.95,9.71,24.3,22.69,25.66,2.21.23,7.71.46,14.29-3.31.47-.2,4.42-1.84,8.2.38,2.4,1.4,3.4,3.59,3.73,4.39-.01.68.02,1.43.12,2.26.23,1.78.74,3.25,1.22,4.33-4.16-3.24-9.32-5.26-15.01-5.26-13.53,0-24.5,10.94-24.5,24.45,0,3.97,1.04,7.66,2.72,10.98-4.47-5.57-10.88-9.13-18.08-9.13-13.5,0-24.45,12.31-24.45,27.49s10.95,27.49,24.45,27.49,24.45-12.31,24.45-27.49c0-5.12-1.33-9.86-3.5-13.96,4.49,5.49,11.24,9.08,18.9,9.08,12.88,0,23.32-9.96,24.3-22.56,2.07,1.97,10.45,7.46,10.39,9.65-.06,2.09-1.51,3.93-3.55,4.47-18.64,6.31-31.15,23.36-31.15,41.78,0,23.92,18.83,43.3,42.05,43.3s42.05-19.39,42.05-43.3c0-19.79-12.91-36.45-30.52-41.61-1.54-.34-2.64-1.72-2.66-3.3-.01-1.6,5.69-4.15,7.43-4.81,1.57-.6,3.11-1.33,4.62-2.17-.42,4.34.7,9.03,3.54,13.12,5.84,8.42,16.62,11.07,24.06,5.92,7.45-5.15,8.75-16.15,2.91-24.57-4.09-5.89-10.58-8.88-16.67-8.43Z"></path><path class="cls-1" d="M338.1,535.72c-3.59-2.25-4.71-5.76-4.97-6.64-.03-1.54-.21-3.23-.62-5.01-2.01-8.66-8.33-13.9-11.24-16.01.84.07,1.68.13,2.54.13,0,0,4.63.02,9.11-1.5,4.48-1.52,10.82-5.93,15.78-13.54.39,1.32,1.8,5.47,5.96,8.36.55.38,6.33,4.24,12.76,2.01,6.77-2.36,10.68-10.24,9.44-16.71-2.09-10.95-24.25-11.56-25.12-11.19-1.36-8.81-6.78-16.28-14.31-20.42,1.01-.15,6.9-1.13,10.77-6.67,4.06-5.81,2.71-12.08,2.48-13.04,11.39-.05,21.79-6.21,27-16.05,6.75-12.76,1.39-25.39.71-26.93,4-.35,11.05-1.54,18.13-6.18,11.35-7.43,18.35-20.79,18.21-34.2-.22-20.77-17.54-40.45-34.83-40.45-4.56,0-8.91,1.05-12.91,2.9-.84-9.46-8.71-16.91-18.41-16.91-10.26,0-18.57,8.3-18.57,18.54s8.26,18.47,18.48,18.53c-1.83,4.08-3.77,10.12-3.42,17.39,1.05,21.7,21.54,33.89,23.6,35.07-3.59-.41-18.95-1.74-30.41,8.8-3.08,2.83-5.21,5.91-6.69,8.64-.67.9-2.57,3.16-5.9,4.23-4.36,1.41-8.04-.25-8.89-.65-.3-.5-6.56-10.67-18.6-10.67-7.56,0-14.21,4.1-18.35,10.34-1.32-3.24-3.6-5.98-6.49-7.87,7.32-2.79,12.37-9.65,12.87-17.48.51-8.06-3.89-15.7-11.13-19.29,11.92-1.45,21.18-11.46,21.18-23.75,0-1.57-.73-7.65-.9-8.82-.1-.8-.69-5.92,2.98-10.2,4.19-4.89,10.3-4.46,10.92-4.4,2.36.31,6.22.47,10.45-1.12,8.26-3.09,15.34-11.88,15-22.28-.35-10.79-8.57-20.23-19.74-22.13-4.43-3.91-7.11-7.9-8.68-10.71-2.68-4.78-6.28-11.22-4.42-17.68.64-2.22,2.42-4.73,5.99-9.76,3.29-4.64,4.41-5.3,5.14-8.01.92-3.4-6.59-25.08-6.98-25.31-1.87-2.08-10.33-10.88-22.57-10.88-16.65,0-30.14,14.39-30.14,32.13s12.67,31.18,28.59,32.05c1.93,1,7.23,4.05,10.65,10.61,3.58,6.88,2.86,13.33,2.54,15.45-3.23,3.88-5.25,8.8-5.25,14.24,0,.29.18,2.09.38,4.09.21,2.21.4,4,.52,5.16-.02,1.47-.25,4.9-2.5,8.36-2.99,4.6-7.47,6.06-8.72,6.42-2.71.34-7.72,1.35-12.64,4.93-2.09,1.52-10.76,8.31-11.06,19.99-.33,13.11,10.17,20.69,10.98,21.25-7.7,1.84-13.48,9.42-13.48,18.5,0,6.82,3.28,12.75,8.16,16.08-8.98,1.82-15.08,9.76-14.57,17.94.67,10.76,12.51,17.11,21.06,15.48,3.56-.68,6.19-2.68,7.82-4.27,1.44,11.73,11.11,20.66,22.41,21.06,10.34.37,20.35-11.8,24.13-21.39,1.8-4.56,2.59-9.62,4.89-9.82,2.18-.19,4.36,4.11,5.92,7.98-.68.23-9.58,3.41-11.99,12.71-1.95,7.52,1.77,13.55,2.41,14.54-15.51.14-28.05,12.72-28.05,28.23,0,9.86,5.07,18.53,12.74,23.58-7.99.06-14.97,4.82-18.97,11.93-.58-9.11-8.27-16.35-17.77-16.35s-17.88,7.8-17.88,17.42c0,2,.42,3.89,1.05,5.68-1.32-.19-2.64-.39-4.01-.39-15.58,0-28.21,12.31-28.21,27.49s12.63,27.49,28.21,27.49,28.21-12.31,28.21-27.49c0-5.79-1.86-11.16-5-15.59,4.96-.65,9.23-3.3,12.05-7.04-.07.83-.22,1.64-.22,2.5,0,10.95,9.71,24.3,22.69,25.66,2.21.23,7.71.46,14.29-3.31.47-.2,4.42-1.84,8.2.38,2.4,1.4,3.4,3.59,3.73,4.39-.01.68.02,1.43.12,2.26.23,1.78.74,3.25,1.22,4.33-4.16-3.24-9.32-5.26-15.01-5.26-13.53,0-24.5,10.94-24.5,24.45,0,3.97,1.04,7.66,2.72,10.98-4.47-5.57-10.88-9.13-18.08-9.13-13.5,0-24.45,12.31-24.45,27.49s10.95,27.49,24.45,27.49,24.45-12.31,24.45-27.49c0-5.12-1.33-9.86-3.5-13.96,4.49,5.49,11.24,9.08,18.9,9.08,12.88,0,23.32-9.96,24.3-22.56,2.07,1.97-2.99-45.6-7.17-48.22Z"></path><path class="cls-2" d="M350.3,504.87c-7.54,0-13.65,6.21-13.65,13.86s6.11,13.86,13.65,13.86,13.65-6.21,13.65-13.86-6.11-13.86-13.65-13.86Z"></path></g><path class="cls-3" d="M666.61,408.6c-1.05-10.48-5.17-20.38-7.87-26.84-5.21-12.45-8.07-13.56-9.64-13.61-3.06-.09-4.56,3.76-9.89,10.02,0,0-5.6,7.45-14.75,13.33-7.69,4.95-16.57,8.14-25.73,9.25-.74.09-1.49.02-2.18-.28-2.28-.99-3.91-3.14-4.2-5.66-.31-2.62.87-5.17,2.99-6.65.55-.38,1.19-.61,1.84-.71,4.85-.72,12.29-2.49,20.16-7.23,10.36-6.25,24.8-25.23,27.06-28.64.16-.25.3-.5.41-.77,2.06-4.92,10.56-27.19-.06-50.53-6.93-15.23-23.54-34.27-39.35-32.19-14.67,1.93-19.73,20.85-40.65,31.3-2.24,1.12-6.34,2.98-9.72,7.34-3.92,5.05-3.55,9.18-6.78,17.34-1.24,3.12-3.29,7.56-6.73,12.6-.23.34-.5.66-.83.92-2.57,2.01-6.2,2.02-8.65.05-2.19-1.76-3.03-4.8-2.11-7.55.12-.35.31-.68.52-.98,2.98-4.36,8.97-14.54,8.71-28.3-.15-8.12-2.41-14.1-3.33-16.32-4.74-11.46-16.9-26.77-30.12-26.21-8.4.35-12.17,6.91-25.64,7.09-3.05.04-5.58-.26-7.31-.54-.24-.04-.47-.09-.7-.17-3.12-1.08-5.04-4.29-4.46-7.53.59-3.32,3.62-5.72,7.03-5.54,2.52.38,6.16.64,10.47.06,5.14-.69,11.38-2.59,17.09-7.24,9.54-7.77,11.78-18.45,12.28-22.25.05-.35.12-.69.25-1.01,1.48-3.65,5.37-5.47,8.56-4.46,2.47.79,4.3,3.22,4.57,6.11.02.23.02.47,0,.7-.17,2.74-.74,6.48-2.54,10.46-3.56,7.9-9.43,11.14-8.33,14.58.65,2.03,3.18,2.49,6.02,3.59,12.06,4.65,21.5,17.53,25.21,27.2,2.01,5.24,2.01,8.71,4.97,9.99,3.44,1.48,7.87-1.29,11.58-4.12,13.7-10.43,27.38-20.85,28.97-39.54,1.63-19.15-10.63-33.03-15.58-38.63-15.91-18.01-37.26-21.69-46.02-22.54-1.45-.14-2.75-.96-3.5-2.23-10.55-18-28.94-29.17-48.22-28.72-2.38.06-28.18,1.1-40.99,22.27-4.26,7.04-5.74,14.08-6.22,19.27-.01.15-.02.3-.02.45v28.91c.17,24,.4,67.2.71,134.52,0,2.1,1.41,4.03,3.45,4.47.02,0,.03,0,.05,0,2.57.53,4.77-.79,8.37-3.02,5.44-3.37,8.16-5.05,8.32-5.17,10.5-7.98,39.17-11.97,42.4-4.88.61,1.34.16,2.74,0,3.25-2.37,7.45-17.99,3.7-36.1,13.38-1.15.62-4.93,2.68-9.4,6.1,0,0-7.61,5.81-13.61,13.54-1.66,2.14-2.98,5.26-4.03,9.13,0,0-.1.61-.16,1.22-.22,2.32-.46,36.16,0,231.53.07,1.22.24,2.99.69,5.07,1.75,8.06,6.12,13.3,8.41,16.04,16.84,20.2,38.8,20.7,38.8,20.7,26.61.61,44.98-23.06,45.32-23.53.72-.99,1.79-1.63,2.99-1.82,11.8-1.79,29.74-6.62,45.12-20.78,11.29-10.39,23.27-27.71,18.7-34.69-2.87-4.39-9.91-1.07-30.31-6.56-5.76-1.55-8.93-2.39-13.3-4.31-13.61-5.97-19.07-13.62-23.36-11.38-2.58,1.35-1.17,4.41-5.68,10.22-3.24,4.17-5.01,3.94-5.7,6.5-1.12,4.12,2.84,7.06,5.62,13.49,1.43,3.3,2.81,8.13,2.56,14.78-.01.37-.07.75-.17,1.1-1.52,5.37-4.09,9.24-6.19,9.1-2.32-.15-4.76-5.22-4.94-12.75-.01-.42-.07-.83-.19-1.23-1.13-3.8-3.95-11.13-10.91-17.12-2.72-2.34-6.38-5.49-11.94-6.66-7.56-1.59-13.23,1.62-14.97-.93-.54-.79-.74-2.18.48-4.85.42-.93,1.13-1.7,2.02-2.18,1.54-.83,3.64-1.75,6.2-2.26,10.2-2.02,15.29,4.94,21.7,2.88,6.42-2.06,10.95-12.01,10.86-20.58-.14-14.51-4.07-34.49-27.21-49.09-3.52-2.22-4.34-6.89-2.2-9.86,1.84-2.54,5.56-3.43,8.67-1.8,13.14,6.86,24.28,21.26,26.15,24.99,8.47,16.88,3.28,21.81,11.83,31.19,6.95,7.63,17.29,11.95,22.04,13.93,5.22,2.18,9.34,3.21,13.12,4.19,9.88,2.57,20.05,3.93,30.39,4.06.44,0,.87-.05,1.29-.17,4.45-1.24,30.46-9.45,42.7-34.26,14.52-29.45,7.3-57.55,4.2-66.98-.51-1.56-.18-3.27.9-4.51,6.14-7.05,22.83-29.13,19.75-59.88ZM602.71,473.78c-.39,3.2-3.06,5.71-6.29,5.92-.28.02-.56,0-.83-.04-3.79-.51-8.95-1.67-14.37-4.53-13.46-7.1-15.81-17.97-23.43-17.68-5.32.2-3.99,5.49-14.94,11.4-10.72,5.79-21.65,5.92-23.53,5.92-.3,0-.61,0-.91,0-25.18-.45-39.44-18.82-42.05-22.5-1.97-2.89-1.84-6.54,0-8.64,2.39-2.73,7.64-2.84,10.78.87,12.86,15.2,21.76,14.8,31.51,16.9,12.72,2.75,29.05-5.64,31.92-15.74,2.26-7.94-5-12.67-5.19-27.18-.1-7.36,1.68-13.4,3.16-17.31.12-.31.26-.61.45-.88,1.78-2.56,5.08-3.61,7.95-2.5,2.74,1.05,4.49,3.82,4.33,6.78-.02.36-.11.71-.22,1.05-1.39,4.15-5.67,19.03,1.71,34.8,9.61,20.57,30.91,25.3,34.91,26.02.29.05.57.12.84.23,2.84,1.15,4.59,4.09,4.22,7.11Z"></path></g><g><path class="cls-4" d="M761.43,582.69c-20-8.5-35.42-20.66-46.25-36.5-10.84-15.83-16.25-34.25-16.25-55.25v-11c0-1.66.58-3.08,1.75-4.25s2.58-1.75,4.25-1.75h57c1.66,0,3.08.59,4.25,1.75,1.16,1.17,1.75,2.59,1.75,4.25v7.5c0,13.34,6.16,24.59,18.5,33.75,12.33,9.17,29,13.75,50,13.75,17.66,0,30.83-3.75,39.5-11.25,8.66-7.5,13-16.75,13-27.75,0-8-2.67-14.75-8-20.25-5.34-5.5-12.59-10.33-21.75-14.5-9.17-4.16-23.75-9.91-43.75-17.25-22.34-7.66-41.25-15.5-56.75-23.5s-28.5-18.91-39-32.75c-10.5-13.83-15.75-30.91-15.75-51.25s5.16-37.5,15.5-52.5c10.33-15,24.66-26.5,43-34.5,18.33-8,39.5-12,63.5-12,25.33,0,47.91,4.5,67.75,13.5,19.83,9,35.33,21.59,46.5,37.75,11.16,16.17,16.75,34.92,16.75,56.25v7.5c0,1.67-.59,3.09-1.75,4.25s-2.59,1.75-4.25,1.75h-57.5c-1.67,0-3.09-.58-4.25-1.75-1.17-1.16-1.75-2.58-1.75-4.25v-4c0-14-5.75-25.91-17.25-35.75-11.5-9.83-27.25-14.75-47.25-14.75-15.67,0-27.92,3.34-36.75,10-8.84,6.67-13.25,15.84-13.25,27.5,0,8.34,2.58,15.34,7.75,21,5.16,5.67,12.83,10.75,23,15.25,10.16,4.5,25.91,10.59,47.25,18.25,23.66,8.67,42.25,16.34,55.75,23,13.5,6.67,25.66,16.59,36.5,29.75,10.83,13.17,16.25,30.25,16.25,51.25,0,31.34-11.5,56.09-34.5,74.25-23,18.17-54.17,27.25-93.5,27.25-26.67,0-50-4.25-70-12.75Z"></path><path class="cls-4" d="M1027.82,575.44c-19.5-13.33-33.42-31.66-41.75-55-5.67-16.66-8.5-36.33-8.5-59s2.83-41.66,8.5-58c8-22.66,21.83-40.5,41.5-53.5,19.66-13,42.83-19.5,69.5-19.5s50.08,6.67,70.25,20c20.16,13.34,33.58,30.17,40.25,50.5,2.66,8,4,14,4,18v1c0,3-1.67,4.84-5,5.5l-57.5,8.5h-1c-3,0-5-1.66-6-5l-1.5-8c-2.34-8.66-7.5-15.83-15.5-21.5-8-5.66-17.5-8.5-28.5-8.5s-19.67,2.67-27,8c-7.34,5.34-12.5,12.67-15.5,22-3.67,10-5.5,23.67-5.5,41s1.66,31,5,41c3,10,8.25,17.84,15.75,23.5,7.5,5.67,16.58,8.5,27.25,8.5s19.41-2.75,27.25-8.25c7.83-5.5,13.25-13.08,16.25-22.75.33-.66.5-1.66.5-3,.33-.33.5-.83.5-1.5.33-4,2.66-5.66,7-5l57.5,9c3.33.67,5,2.5,5,5.5,0,2.67-1,7.67-3,15-7,22.34-20.59,39.84-40.75,52.5-20.17,12.67-43.42,19-69.75,19s-49.75-6.66-69.25-20Z"></path><path class="cls-4" d="M1433.17,354.94c16.33,16.34,24.5,38.5,24.5,66.5v164c0,1.67-.59,3.09-1.75,4.25s-2.59,1.75-4.25,1.75h-58.5c-1.67,0-3.09-.58-4.25-1.75-1.17-1.16-1.75-2.58-1.75-4.25v-149.5c0-13.33-3.75-24.16-11.25-32.5-7.5-8.33-17.42-12.5-29.75-12.5s-22.25,4.17-29.75,12.5c-7.5,8.34-11.25,19.17-11.25,32.5v149.5c0,1.67-.59,3.09-1.75,4.25s-2.59,1.75-4.25,1.75h-58.5c-1.67,0-3.09-.58-4.25-1.75-1.17-1.16-1.75-2.58-1.75-4.25V247.44c0-1.66.58-3.08,1.75-4.25s2.58-1.75,4.25-1.75h58.5c1.66,0,3.08.59,4.25,1.75,1.16,1.17,1.75,2.59,1.75,4.25v110.5c0,1,.33,1.67,1,2,.66.34,1.16.17,1.5-.5,13.66-19.33,34-29,61-29s48.16,8.17,64.5,24.5Z"></path><path class="cls-4" d="M1530.12,573.44c-20-14.66-33.67-34.66-41-60-4.67-15.66-7-32.66-7-51,0-19.66,2.33-37.33,7-53,7.66-24.66,21.5-44,41.5-58s44-21,72-21,50.66,6.92,70,20.75c19.33,13.84,33,33.09,41,57.75,5.33,16.67,8,34.17,8,52.5s-2.34,34.84-7,50.5c-7.34,26-20.92,46.42-40.75,61.25-19.84,14.84-43.75,22.25-71.75,22.25s-52-7.33-72-22ZM1630.12,524.94c7.66-6.66,13.16-15.83,16.5-27.5,2.66-10.66,4-22.33,4-35,0-14-1.34-25.83-4-35.5-3.67-11.33-9.34-20.16-17-26.5-7.67-6.33-17-9.5-28-9.5s-20.75,3.17-28.25,9.5c-7.5,6.34-12.92,15.17-16.25,26.5-2.67,8-4,19.84-4,35.5s1.16,26.67,3.5,35c3.33,11.67,8.91,20.84,16.75,27.5,7.83,6.67,17.41,10,28.75,10s20.33-3.33,28-10Z"></path><path class="cls-2" d="M1799.76,586.44l-80-245.5c-.34-.66-.5-1.5-.5-2.5,0-3,1.83-4.5,5.5-4.5h64.5c3.66,0,6,1.67,7,5l41,151.5c.33,1,.83,1.5,1.5,1.5s1.16-.5,1.5-1.5l41-151.5c1-3.33,3.33-5,7-5l64.5,1c2,0,3.5.59,4.5,1.75,1,1.17,1.16,2.92.5,5.25l-79.5,244.5c-1,3.34-3.17,5-6.5,5h-65.5c-3.34,0-5.5-1.66-6.5-5Z"></path><path class="cls-2" d="M1982.36,294.19c-7.5-7.5-11.25-16.91-11.25-28.25s3.66-21.16,11-28.5,16.83-11,28.5-11,21.16,3.67,28.5,11c7.33,7.34,11,16.84,11,28.5s-3.75,20.75-11.25,28.25-16.92,11.25-28.25,11.25-20.75-3.75-28.25-11.25ZM1976.36,589.69c-1.17-1.16-1.75-2.58-1.75-4.25v-245.5c0-1.66.58-3.08,1.75-4.25s2.58-1.75,4.25-1.75h58.5c1.66,0,3.08.59,4.25,1.75,1.16,1.17,1.75,2.59,1.75,4.25v245.5c0,1.67-.59,3.09-1.75,4.25s-2.59,1.75-4.25,1.75h-58.5c-1.67,0-3.09-.58-4.25-1.75Z"></path><path class="cls-2" d="M2243.2,341.69c17,7.5,30.25,17.75,39.75,30.75s14.25,27.5,14.25,43.5v169.5c0,1.67-.59,3.09-1.75,4.25s-2.59,1.75-4.25,1.75h-58.5c-1.67,0-3.09-.58-4.25-1.75-1.17-1.16-1.75-2.58-1.75-4.25v-16.5c0-1-.34-1.66-1-2-.67-.33-1.34,0-2,1-14,18.34-36.5,27.5-67.5,27.5-26,0-47-6.33-63-19-16-12.66-24-31.33-24-56s9-45.58,27-59.75c18-14.16,43.66-21.25,77-21.25h51c1.66,0,2.5-.83,2.5-2.5v-11c0-11-3.34-19.58-10-25.75-6.67-6.16-16.67-9.25-30-9.25-10.34,0-18.92,1.84-25.75,5.5-6.84,3.67-11.25,8.84-13.25,15.5-1,3.67-3.17,5.34-6.5,5l-60.5-8c-4-.66-5.84-2.16-5.5-4.5,1.33-14,6.91-26.66,16.75-38,9.83-11.33,22.83-20.16,39-26.5,16.16-6.33,34.25-9.5,54.25-9.5,21.66,0,41,3.75,58,11.25ZM2211.7,531.44c10-7.66,15-17.5,15-29.5v-18c0-1.66-.84-2.5-2.5-2.5h-36c-15,0-26.75,2.84-35.25,8.5-8.5,5.67-12.75,13.67-12.75,24,0,9,3.16,16.09,9.5,21.25,6.33,5.17,14.83,7.75,25.5,7.75,14.33,0,26.5-3.83,36.5-11.5Z"></path></g></g></svg>